<svg data-v-0dd9719b="" version="1.0" xmlns="http://www.w3.org/2000/svg" xmlns:xlink="http://www.w3.org/1999/xlink" width="100%" height="100%" viewBox="0 0 340.000000 250.000000" preserveAspectRatio="xMidYMid meet" color-interpolation-filters="sRGB" style="margin: auto;"> <rect data-v-0dd9719b="" x="0" y="0" width="100%" height="100%" fill="#ffffff" fill-opacity="1" class="background"></rect> <rect data-v-0dd9719b="" x="0" y="0" width="100%" height="100%" fill="url(#watermark)" fill-opacity="1" class="watermarklayer"></rect> <g data-v-0dd9719b="" fill="#0a0619" class="icon-text-wrapper icon-svg-group iconsvg" transform="translate(48.30000305175781,90.5037612915039)"><g class="iconsvg-imagesvg" transform="translate(0,0)" mask="url(#182ae61d-73a2-46cd-a7fd-c528460cade1)"><g><rect fill="#0a0619" fill-opacity="0" stroke-width="2" x="0" y="0" width="60.00000000000001" height="68.99247981969967" class="image-rect"></rect> <svg filter="url(#colors5670294851)" x="0" y="0" width="60.00000000000001" height="68.99247981969967" filtersec="colorsf7607802606" class="image-svg-svg primary" style="overflow: visible;"><svg xmlns="http://www.w3.org/2000/svg" viewBox="0 0 53.18000030517578 61.150001525878906"><defs><linearGradient id="a32444dcc-983b-46e2-b12a-3e7c0927e15c" x1="50.89" y1="55.62" x2="15.15" y2="19.88" gradientUnits="userSpaceOnUse"><stop offset="0" stop-color="#000000"></stop><stop offset=".45" stop-color="#000000"></stop><stop offset=".54" stop-color="#000000"></stop><stop offset=".69" stop-color="#000000"></stop><stop offset=".89" stop-color="#000000"></stop><stop offset="1" stop-color="#000000"></stop></linearGradient><linearGradient id="b2cf7d91e-4ddd-4116-947c-eb0c29859a5d" x1="2.83" y1="24.44" x2="38.14" y2="24.44" gradientUnits="userSpaceOnUse"><stop offset="0" stop-color="#000000"></stop><stop offset="1" stop-color="#000000"></stop></linearGradient></defs><g><g><path d="M17.4 29.68l2.41.08h2.65a12.45 12.45 0 0 1 4.89.64q2 1 2 4.33 0 4.65-3.21 4.57l-1.44-.08h-9q-3.53-.48-3.53-4.17v-.64l.08-.32Q4 34.09 0 24.06l5.29 3.37Q7.62 29 15.48 29.52zM44.81 7.47c4.45 4.45 6.28 9.43 6.28 12.91v5.77h-5.77q.24 1.13 4.41 6 3.45 3.93 3.45 12.43 0 7.7-3.69 12-4 4.57-11.39 4.57H22.94q-5.29 0-13.79-6.1-9-6.33-9-11.23l4 2.73a12.05 12.05 0 0 0 7 2.09h17.32q7.3 0 10.47-3.53t3.17-10.83q0-5.85-1.92-8.9-2.19-3.32-7.63-4.69L29 20.21l-3.77-.16-2.57.08h-2.53a14.36 14.36 0 0 1-5.29-.72 4.21 4.21 0 0 1-2.57-4.25 4.27 4.27 0 0 1 2.57-4.33 18.45 18.45 0 0 1 5.86-.64 16.09 16.09 0 0 1 5.61.64q2.08 1.12 2.09 4.81h11.78q0-7.06-3-11.07A19.19 19.19 0 0 0 31 0a27.17 27.17 0 0 1 13.81 7.47z" fill="url(#a32444dcc-983b-46e2-b12a-3e7c0927e15c)"></path><path d="M9 38.61a3.1 3.1 0 1 1-3.1-3.1 3.1 3.1 0 0 1 3.1 3.1zm4 2.32a3.1 3.1 0 1 0 3.1 3.1 3.1 3.1 0 0 0-3.1-3.09zm9.58 0a3.1 3.1 0 1 0 3.1 3.1 3.1 3.1 0 0 0-3.12-3.09zm9.29-.68a3.1 3.1 0 1 0 3.1 3.1 3.1 3.1 0 0 0-3.12-3.09zM35 32.62a3.1 3.1 0 1 0 3.1 3.1 3.1 3.1 0 0 0-3.1-3.1zm-1.35-8.13a3.1 3.1 0 1 0 3.1 3.1 3.1 3.1 0 0 0-3.06-3.1zm-8.32-2.22a3.1 3.1 0 1 0 3.1 3.1 3.1 3.1 0 0 0-3.06-3.1zm-8.9-.68a3.1 3.1 0 1 0 3.1 3.1 3.1 3.1 0 0 0-3.06-3.1zm-11.41.68a3.1 3.1 0 1 0 3.1-3.1 3.1 3.1 0 0 0-3.07 3.1zm1.16-4.93a3.1 3.1 0 1 0-3.1-3.1 3.1 3.1 0 0 0 3.13 3.09zm3-7.64a3.1 3.1 0 1 0-3.1-3.1 3.1 3.1 0 0 0 3.13 3.09zm8.51-1.74a3.1 3.1 0 1 0-3.1-3.1 3.1 3.1 0 0 0 3.14 3.09zM26.43 2a3.1 3.1 0 1 0 3.1 3.1 3.1 3.1 0 0 0-3.1-3.1zm6.87 11.66a3.1 3.1 0 1 0-3.1-3.1 3.1 3.1 0 0 0 3.1 3.1z" fill="url(#b2cf7d91e-4ddd-4116-947c-eb0c29859a5d)"></path></g></g></svg></svg> <defs><filter id="colors5670294851"><feColorMatrix type="matrix" values="0 0 0 0 0.0390625  0 0 0 0 0.0234375  0 0 0 0 0.09765625  0 0 0 1 0" class="icon-fecolormatrix"></feColorMatrix></filter> <filter id="colorsf7607802606"><feColorMatrix type="matrix" values="0 0 0 0 0.99609375  0 0 0 0 0.99609375  0 0 0 0 0.99609375  0 0 0 1 0" class="icon-fecolormatrix"></feColorMatrix></filter> <filter id="colorsb9879706720"><feColorMatrix type="matrix" values="0 0 0 0 0  0 0 0 0 0  0 0 0 0 0  0 0 0 1 0" class="icon-fecolormatrix"></feColorMatrix></filter></defs></g><rect v-gra="id" width="72" height="80.99247741699219" transform="translate(-6, -6)" style="pointer-events:none;" fill="url(#u2H9iXgK0Rr8cV9b6nz00)"></rect></g> <g transform="translate(67,23.16623878479004)"><g data-gra="path-name" fill-rule="" class="tp-name iconsvg-namesvg"><g transform="scale(1)"><g><path d="M3.72-7L17.57-7 18.33-11.61 2.96-11.61 4.88-25.06 27.54-25.06 26.78-18.53 19.09-18.53 19.49-21.21 12.17-21.21 11.01-15.45 26.38-15.45 24.86-5.08Q24.86-4.52 24.6-4.02 24.34-3.52 23.9-3.16 23.46-2.8 22.92-2.6 22.37-2.4 21.77-2.4L21.77-2.4 1.8-2.4 2.56-8.57 3.72-7ZM33.9-25.06L55.44-25.06Q56-25.06 56.48-24.86 56.96-24.66 57.3-24.3 57.64-23.94 57.76-23.46 57.88-22.98 57.72-22.37L57.72-22.37 55.04-2.4 33.5-2.4Q32.94-2.4 32.46-2.6 31.98-2.8 31.64-3.16 31.3-3.52 31.18-4.02 31.06-4.52 31.22-5.08L31.22-5.08 33.9-25.06ZM50.03-21.21L40.83-21.21 38.91-6.24 47.75-6.24 50.03-21.21ZM62.92-25.06L87.9-25.06 86.38-12.77Q86.06-11.61 85.12-10.85 84.18-10.09 83.3-10.09L83.3-10.09 69.85-10.09 68.69-2.4 61.4-2.4 64.08-23.94 62.92-25.06ZM79.85-21.21L71.41-21.21 70.61-13.93 78.69-13.93 79.85-21.21ZM92.82-25.06L102.07-25.06 100.91-16.25 109.83-16.25 110.91-23.54 109.75-25.06 118.6-25.06 115.52-2.4 107.83-2.4 109.35-12.41 100.39-12.41 98.99-2.4 91.3-2.4 94.38-23.94 92.82-25.06ZM124.96-25.06L146.5-25.06Q147.06-25.06 147.54-24.86 148.02-24.66 148.36-24.3 148.7-23.94 148.82-23.46 148.94-22.98 148.78-22.37L148.78-22.37 146.1-2.4 124.56-2.4Q124-2.4 123.52-2.6 123.04-2.8 122.7-3.16 122.36-3.52 122.24-4.02 122.12-4.52 122.28-5.08L122.28-5.08 124.96-25.06ZM141.09-21.21L131.89-21.21 129.97-6.24 138.81-6.24 141.09-21.21ZM154.38-7L168.23-7 168.99-11.61 153.62-11.61 155.54-25.06 178.2-25.06 177.44-18.53 169.75-18.53 170.15-21.21 162.83-21.21 161.67-15.45 177.04-15.45 175.52-5.08Q175.52-4.52 175.26-4.02 175-3.52 174.56-3.16 174.12-2.8 173.58-2.6 173.04-2.4 172.43-2.4L172.43-2.4 152.46-2.4 153.22-8.57 154.38-7Z" transform="translate(-1.7999999523162842, 25.059999465942383)"></path></g> <!----> <!----> <!----> <!----> <!----> <!----> <!----></g></g> <!----></g></g><defs v-gra="od"></defs><defs v-gra="id"><filter id="5a560452-939f-447a-958c-032729391b25" filterUnits="userSpaceOnUse"><feColorMatrix type="matrix" values="0 0 0 0 0.99609375  0 0 0 0 0.99609375  0 0 0 0 0.99609375  0 0 0 1 0"></feColorMatrix></filter><linearGradient x1="0" y1="1" x2="0" y2="0" id="u2H9iXgK0Rr8cV9b6nz00"><stop offset="0%" stop-color="#fa8bff"></stop><stop offset="50%" stop-color="#2bd2ff"></stop><stop offset="100%" stop-color="#2bff88"></stop></linearGradient><filter id="42443b3f1de60f6b6fd3b6a9844b4764" filterUnits="objectBoundingBox"><feColorMatrix type="matrix" values="0 0 0 0 0.99609375  0 0 0 0 0.99609375  0 0 0 0 0.99609375  0 0 0 1 0"></feColorMatrix></filter></defs><mask v-gra="im" id="182ae61d-73a2-46cd-a7fd-c528460cade1"><g class="iconsvg-imagesvg" filter="url(#5a560452-939f-447a-958c-032729391b25)"><g><rect fill="#0a0619" fill-opacity="0" stroke-width="2" x="0" y="0" width="60.00000000000001" height="68.99247981969967" class="image-rect"></rect> <svg x="0" y="0" width="60.00000000000001" height="68.99247981969967" filtersec="colorsf7607802606" class="image-svg-svg primary" style="overflow: visible;"><svg xmlns="http://www.w3.org/2000/svg" viewBox="0 0 53.18000030517578 61.150001525878906"><defs><linearGradient id="a32444dcc-983b-46e2-b12a-3e7c0927e15c" x1="50.89" y1="55.62" x2="15.15" y2="19.88" gradientUnits="userSpaceOnUse"><stop offset="0" stop-color="#000000"></stop><stop offset=".45" stop-color="#000000"></stop><stop offset=".54" stop-color="#000000"></stop><stop offset=".69" stop-color="#000000"></stop><stop offset=".89" stop-color="#000000"></stop><stop offset="1" stop-color="#000000"></stop></linearGradient><linearGradient id="b2cf7d91e-4ddd-4116-947c-eb0c29859a5d" x1="2.83" y1="24.44" x2="38.14" y2="24.44" gradientUnits="userSpaceOnUse"><stop offset="0" stop-color="#000000"></stop><stop offset="1" stop-color="#000000"></stop></linearGradient></defs><g><g><path d="M17.4 29.68l2.41.08h2.65a12.45 12.45 0 0 1 4.89.64q2 1 2 4.33 0 4.65-3.21 4.57l-1.44-.08h-9q-3.53-.48-3.53-4.17v-.64l.08-.32Q4 34.09 0 24.06l5.29 3.37Q7.62 29 15.48 29.52zM44.81 7.47c4.45 4.45 6.28 9.43 6.28 12.91v5.77h-5.77q.24 1.13 4.41 6 3.45 3.93 3.45 12.43 0 7.7-3.69 12-4 4.57-11.39 4.57H22.94q-5.29 0-13.79-6.1-9-6.33-9-11.23l4 2.73a12.05 12.05 0 0 0 7 2.09h17.32q7.3 0 10.47-3.53t3.17-10.83q0-5.85-1.92-8.9-2.19-3.32-7.63-4.69L29 20.21l-3.77-.16-2.57.08h-2.53a14.36 14.36 0 0 1-5.29-.72 4.21 4.21 0 0 1-2.57-4.25 4.27 4.27 0 0 1 2.57-4.33 18.45 18.45 0 0 1 5.86-.64 16.09 16.09 0 0 1 5.61.64q2.08 1.12 2.09 4.81h11.78q0-7.06-3-11.07A19.19 19.19 0 0 0 31 0a27.17 27.17 0 0 1 13.81 7.47z" fill="url(#a32444dcc-983b-46e2-b12a-3e7c0927e15c)"></path><path d="M9 38.61a3.1 3.1 0 1 1-3.1-3.1 3.1 3.1 0 0 1 3.1 3.1zm4 2.32a3.1 3.1 0 1 0 3.1 3.1 3.1 3.1 0 0 0-3.1-3.09zm9.58 0a3.1 3.1 0 1 0 3.1 3.1 3.1 3.1 0 0 0-3.12-3.09zm9.29-.68a3.1 3.1 0 1 0 3.1 3.1 3.1 3.1 0 0 0-3.12-3.09zM35 32.62a3.1 3.1 0 1 0 3.1 3.1 3.1 3.1 0 0 0-3.1-3.1zm-1.35-8.13a3.1 3.1 0 1 0 3.1 3.1 3.1 3.1 0 0 0-3.06-3.1zm-8.32-2.22a3.1 3.1 0 1 0 3.1 3.1 3.1 3.1 0 0 0-3.06-3.1zm-8.9-.68a3.1 3.1 0 1 0 3.1 3.1 3.1 3.1 0 0 0-3.06-3.1zm-11.41.68a3.1 3.1 0 1 0 3.1-3.1 3.1 3.1 0 0 0-3.07 3.1zm1.16-4.93a3.1 3.1 0 1 0-3.1-3.1 3.1 3.1 0 0 0 3.13 3.09zm3-7.64a3.1 3.1 0 1 0-3.1-3.1 3.1 3.1 0 0 0 3.13 3.09zm8.51-1.74a3.1 3.1 0 1 0-3.1-3.1 3.1 3.1 0 0 0 3.14 3.09zM26.43 2a3.1 3.1 0 1 0 3.1 3.1 3.1 3.1 0 0 0-3.1-3.1zm6.87 11.66a3.1 3.1 0 1 0-3.1-3.1 3.1 3.1 0 0 0 3.1 3.1z" fill="url(#b2cf7d91e-4ddd-4116-947c-eb0c29859a5d)"></path></g></g></svg></svg> <defs><filter id="colors5670294851"><feColorMatrix type="matrix" values="0 0 0 0 0.0390625  0 0 0 0 0.0234375  0 0 0 0 0.09765625  0 0 0 1 0" class="icon-fecolormatrix"></feColorMatrix></filter> <filter id="colorsf7607802606"><feColorMatrix type="matrix" values="0 0 0 0 0.99609375  0 0 0 0 0.99609375  0 0 0 0 0.99609375  0 0 0 1 0" class="icon-fecolormatrix"></feColorMatrix></filter> <filter id="colorsb9879706720"><feColorMatrix type="matrix" values="0 0 0 0 0  0 0 0 0 0  0 0 0 0 0  0 0 0 1 0" class="icon-fecolormatrix"></feColorMatrix></filter></defs></g></g></mask></svg>